<svg id="Layer_1" data-name="Layer 1" xmlns="http://www.w3.org/2000/svg" xmlns:xlink="http://www.w3.org/1999/xlink" viewBox="0 0 1000.85 127.99"><defs><style>.cls-1{fill:url(#linear-gradient);}</style><linearGradient id="linear-gradient" x1="21.07" y1="63.99" x2="979.79" y2="63.99" gradientUnits="userSpaceOnUse"><stop offset="0" stop-color="#115bc4"/><stop offset="0.01" stop-color="#1060c7"/><stop offset="0.1" stop-color="#0d7dd8"/><stop offset="0.2" stop-color="#0a95e5"/><stop offset="0.31" stop-color="#08a7f0"/><stop offset="0.44" stop-color="#06b3f7"/><stop offset="0.62" stop-color="#05bbfc"/><stop offset="1" stop-color="#05bdfd"/></linearGradient></defs><title>logo-kemendesa</title><path class="cls-1" d="M248.69,109.45H221.34l-28-41.77a39.91,39.91,0,0,1-2.55-5.3h-.34v47.07H168.77V13.3h21.66V58.76h.34q.8-1.88,2.68-5.36L220,13.3h25.81L212.28,59.16Zm66.85,0H257.88V13.3h55.45V30.94H279.53V52.32H311V69.89H279.53v22h36Zm125,0H419.13V51.92q0-9.32.8-20.58h-.54a101.42,101.42,0,0,1-3,12.74l-22.53,65.37h-17.7l-22.93-64.7a125.43,125.43,0,0,1-3-13.41h-.6q.87,14.22.87,24.94v53.17H331V13.3h31.71l19.65,57A80.37,80.37,0,0,1,385.74,84h.4A138.6,138.6,0,0,1,390,70.16L409.61,13.3h30.91Zm79.52,0H462.37V13.3h55.45V30.94H484V52.32h31.45V69.89H484v22h36Zm101.91,0H600.09L560.47,49a87.24,87.24,0,0,1-4.83-8h-.27q.54,5.1.54,15.56v52.83H535.46V13.3h23.33l38.15,58.53q2.61,4,4.83,7.84H602a102.73,102.73,0,0,1-.54-13.21V13.3h20.45Zm22,0V13.3H678q51.22,0,51.23,46.87,0,22.46-14,35.87T678,109.45ZM665.6,30.94V91.88h10.73q14.08,0,22.09-8.45t8-23q0-13.74-7.94-21.62t-22.29-7.88Zm137.25,78.51H745.18V13.3h55.45V30.94H766.84V52.32h31.44V69.89H766.84v22h36Zm11-3.69V84.31a41.25,41.25,0,0,0,12.67,7.34,40.7,40.7,0,0,0,13.81,2.45,30.52,30.52,0,0,0,7.14-.74,16.64,16.64,0,0,0,5.1-2,8.94,8.94,0,0,0,3.05-3.08,7.68,7.68,0,0,0,1-3.86,8.32,8.32,0,0,0-1.61-5,17.29,17.29,0,0,0-4.39-4.09,45.73,45.73,0,0,0-6.6-3.62q-3.82-1.75-8.25-3.56Q824.5,63.39,819,56.62a25,25,0,0,1-5.53-16.36,26,26,0,0,1,3-12.91,25.62,25.62,0,0,1,8.21-8.88,36.86,36.86,0,0,1,12-5.13,61.81,61.81,0,0,1,14.48-1.64,87.08,87.08,0,0,1,13.31.91,52.36,52.36,0,0,1,10.7,2.78v20a32.51,32.51,0,0,0-5.26-2.95,41.88,41.88,0,0,0-5.87-2.11,44.73,44.73,0,0,0-6-1.24,42.34,42.34,0,0,0-5.66-.4,29.51,29.51,0,0,0-6.7.7,17.2,17.2,0,0,0-5.1,2,9.86,9.86,0,0,0-3.22,3.05,7.21,7.21,0,0,0-1.14,4,7.62,7.62,0,0,0,1.27,4.32,14.6,14.6,0,0,0,3.62,3.62,38.37,38.37,0,0,0,5.7,3.35q3.35,1.64,7.58,3.39a84.27,84.27,0,0,1,10.36,5.13,36.79,36.79,0,0,1,7.88,6.13,23.91,23.91,0,0,1,5,7.81,27.57,27.57,0,0,1,1.75,10.22,27.41,27.41,0,0,1-3.05,13.51,24.76,24.76,0,0,1-8.28,8.85,35.85,35.85,0,0,1-12.17,4.86,70.33,70.33,0,0,1-14.65,1.48,81.47,81.47,0,0,1-15.05-1.34A45.43,45.43,0,0,1,813.84,105.76Zm165.94,3.69h-23.6l-6.84-21.39h-34.2l-6.77,21.39H884.91l35-96.15h25.68Zm-35.4-38L934.06,39.12a41.93,41.93,0,0,1-1.61-8.65h-.54a36.7,36.7,0,0,1-1.67,8.38L919.78,71.43ZM136.25,59.09a65.81,65.81,0,0,0-6.66,8.7c-3.28,5-6.35,10.13-9.66,15.11-4.89,7.36-11.4,13-18.45,18.2-3.43,2.51-6.84,5.06-10.27,7.59a36.66,36.66,0,0,0-7.17,7.12A14,14,0,0,0,81.44,126c-6.27-4.94-11.89-10-14.21-17.79a30.64,30.64,0,0,1-.4-5.34c.27-4.38,2.18-8.11,4.55-11.67,2.7-4.07,5.9-7.76,8.87-11.63,3.68-4.78,7-9.76,9.15-15.47a4.87,4.87,0,0,1,1.85,6.54A30.39,30.39,0,0,1,87.5,76a16.07,16.07,0,0,0-3,5.19c-1.35,4.62,2.35,9.62,7.32,9.88,4.42.23,8.29-1.4,11.86-3.81,4.76-3.22,8.39-7.61,12-12,3.52-4.2,6.8-8.62,10.8-12.41a17,17,0,0,1,5-3.52A6.38,6.38,0,0,1,136.25,59.09ZM93.72,109.57s0,0,0,0h0l0,0h0Zm-10,12a.73.73,0,0,0,.79-.11,17.75,17.75,0,0,0,8.13-8.36,7.16,7.16,0,0,0,1.11-3.47C89.21,112.6,85.13,116,83.7,121.55Zm10.16-12.07-.1.09h.1Zm-3-33.75a27.63,27.63,0,0,0-3.71,5.33,4.78,4.78,0,0,0,1,5.57,6.34,6.34,0,0,0,6,1.83c4.88-.74,8.76-3.33,12.26-6.62A92.52,92.52,0,0,0,114.26,73a135.79,135.79,0,0,1,10.46-12,3.19,3.19,0,0,0-.36-.19A70.31,70.31,0,0,0,104.46,57,54.63,54.63,0,0,0,76,63.38,53.21,53.21,0,0,0,56.06,82c-.33.52-.5.83.19,1.24A62.56,62.56,0,0,0,68.92,89a.92.92,0,0,0,1.24-.39c2.2-3.2,4.72-6.17,7.11-9.23,3.57-4.57,7-9.24,9.19-14.66.66-1.61,1.25-3.25,1.92-5,1.62,1.5,3.39,2.7,4.61,4.49a7.18,7.18,0,0,1,.53,7.48A21.49,21.49,0,0,1,90.84,75.73ZM48.66,77.51c6.67-13.88,17-24.2,30.36-31.58a3.16,3.16,0,0,0-.38-.28C64.93,39.34,50.4,37,35.44,36.8c-.59,0-.66.26-.69.75-.56,10.21.72,20.07,5.62,29.23A40.67,40.67,0,0,0,48.66,77.51ZM84.77,45.92c.35.22.56.37.78.51a57.72,57.72,0,0,1,9.81,7.06,3.42,3.42,0,0,0,2.85,1A63.8,63.8,0,0,1,126,58.11c.64.24.89.1,1.12-.57A48.1,48.1,0,0,0,129,37.33c-.09-.86-.6-.71-1.11-.7a132.19,132.19,0,0,0-15.26,1.14A91.42,91.42,0,0,0,84.77,45.92ZM61,18.73q20.06-.05,40.11,0c.42,0,.83-.05,1.25-.08.26,0,.41-.07.37-.35a76.49,76.49,0,0,0,0-7.68c0-.22-.14-.29-.33-.3a.76.76,0,0,0-.18-.14L81.76,2.09a1.52,1.52,0,0,0-1.2,0q-10,4-19.92,8a1,1,0,0,0-.77,1.18c0,2.09.07,4.19,0,6.28C59.83,18.49,60.09,18.73,61,18.73Zm21.74,3.86c0,5.87,0,11.73,0,17.6v3.58c1.71-.76,3.23-1.46,4.76-2.11a94.79,94.79,0,0,1,24.51-6.56c.72-.1,1-.27,1-1.09q-.07-5.77,0-11.54c0-.82-.26-1-1-1q-14.12,0-28.23,0C82.91,21.46,82.78,21.79,82.78,22.59Zm-17.46,68c-14-5.2-24.56-14-30-28.25-.09-.24-.14-.51-.44-.62-1.62-.6-2.95-1.74-4.53-2.42a5.05,5.05,0,0,0-3.89-.21,1.77,1.77,0,0,0,.16.33A200.35,200.35,0,0,1,38.45,76.51c4.82,7.43,10,14.59,16.88,20.28a67.41,67.41,0,0,0,9,6.49,24.37,24.37,0,0,1,3.87-11.67C67.17,91.26,66.24,90.94,65.32,90.59ZM87.7,56.07c1.77-.43,3.56-.77,5.51-1.18a63.84,63.84,0,0,0-10.32-7.1,1.56,1.56,0,0,0-1.76,0C68.49,54.87,58.48,64.53,51.8,77.5c-1,2-1,1.91.71,3.27.67.54.87.3,1.23-.29a52.54,52.54,0,0,1,6-8A54.54,54.54,0,0,1,87.7,56.07ZM50,34.95c.41.07.82.16,1.23.22a98.83,98.83,0,0,1,27.86,7.68c1.09.49.83-.22.83-.74,0-6.52,0-13,0-19.56,0-.84-.2-1.09-1.07-1.09-9.38,0-18.75,0-28.13,0-.34,0-.78-.22-1,.25V22q-.19,6.26,0,12.52C49.7,34.77,49.74,34.95,50,34.95Zm-29,51.86.07.13s.07-.05.06-.07a.65.65,0,0,0-.06-.14Z"/></svg>